<svg width="46" height="88" viewBox="0 0 46 88" fill="none" 
    xmlns="http://www.w3.org/2000/svg">
    <path fill-rule="evenodd" clip-rule="evenodd" d="M44 22.5001C44 28.4675 41.6821 34.1904 37.5563 38.41C33.4305 42.6295 27.8347 45 22 45C17.6488 45 13.3953 43.6804 9.77741 41.208C6.15954 38.7357 3.33975 35.2217 1.67463 31.1103C0.00951724 26.999 -0.426142 22.475 0.422749 18.1104C1.27164 13.7458 3.36695 9.73671 6.44372 6.59004C9.52049 3.44337 13.4405 1.30047 17.7081 0.432321C21.9757 -0.435827 26.3992 0.00977001 30.4191 1.71276C34.4391 3.41576 37.875 6.29966 40.2924 9.99978C42.7098 13.6999 44 18.0501 44 22.5001V22.5001Z" fill="#BFCE00"/>
    <path fill-rule="evenodd" clip-rule="evenodd" d="M44 45.5001C44 51.4674 41.6821 57.1904 37.5563 61.4099C33.4305 65.6295 27.8347 68 22 68C17.6488 68 13.3953 66.6804 9.77742 64.208C6.15954 61.7357 3.33976 58.2217 1.67464 54.1103C0.00952105 49.999 -0.426141 45.475 0.422745 41.1104C1.27163 36.7458 3.36694 32.7367 6.4437 29.5901C9.52047 26.4434 13.4405 24.3005 17.7081 23.4323C21.9757 22.5642 26.3991 23.0098 30.4191 24.7127C34.4391 26.4157 37.875 29.2996 40.2924 32.9997C42.7098 36.6999 44 41.05 44 45.5001V45.5001Z" fill="#00327B"/>
    <path fill-rule="evenodd" clip-rule="evenodd" d="M41 33.9997C37.1939 40.5765 30.1098 45 21.9994 45C13.889 45 6.80579 40.5765 3 33.9996C6.80599 27.4225 13.8895 23 21.9994 23C30.1095 23 37.1939 27.4226 41 33.9997Z" fill="#15130E"/>
    <path fill-rule="evenodd" clip-rule="evenodd" d="M34.8075 86.3692C36.2714 87.4718 37.9862 88 39.8565 88C42.7997 88 46 87.2086 46 84.0599C46 79.4716 38.1913 80.4357 38.1913 77.6187C38.1913 76.5482 39.5319 75.9435 40.74 75.9435C41.9118 75.9435 43.1656 76.3998 43.69 76.6497L45.0489 75.3673C44.2238 74.6581 42.1295 74.1426 40.736 74.1426H40.7128C36.9509 74.1426 35.2376 76.1871 35.2376 78.0553C35.2376 82.5101 43.0033 81.862 42.924 84.5235C42.8922 85.5835 41.2009 86.1248 39.8333 86.1248C38.4962 86.1248 37.0341 85.5956 36.1424 85.1087L34.8075 86.3692ZM24.2327 86.0731C22.659 86.0731 20.9742 85.4321 20.9742 81.4648C20.9742 79.1129 20.9742 76.4943 20.9742 74.1427L18.0319 74.988V81.5183C18.0319 82.302 18.0394 83.0801 18.2018 83.8505C18.8268 86.7715 20.7843 88 23.9134 88C24.0186 88 24.1257 87.9979 24.2326 87.9942C24.3396 87.9979 24.1904 88 24.2959 88C27.4881 88 29.4599 86.7218 30.0433 83.6728C30.1716 82.9982 30.1774 82.3299 30.1774 81.6462V79.224H30.1776V74.1427L27.6311 74.8813V79.224H27.6309V81.4648C27.6309 85.4321 25.8063 86.0731 24.2326 86.0731H24.2327ZM9.87536 86.1258C9.55978 86.2247 8.94593 86.3296 8.36996 86.3296C5.70196 86.3296 3.09897 84.6416 3.09897 80.9233C3.09897 77.5899 5.22284 75.8804 8.028 75.8804C9.2368 75.8804 10.3766 76.0946 11.4029 76.5647L12.8175 75.2394C12.2702 74.7479 10.5823 74 8.09638 74C3.62614 74 0 76.6924 0 81.0943C0 86.4152 4.05974 88 7.89126 88C8.90003 88 10.0246 87.7997 10.8197 87.5985L12.8175 86.4533V82.9485V81.0489L9.87536 81.8452V86.1258Z" fill="black"/>
</svg>
