<svg width="34" height="16" viewBox="0 0 34 16" fill="none" xmlns="http://www.w3.org/2000/svg">
<path d="M9.38618 5.0617C9.38617 6.31431 8.90313 7.51417 8.04559 8.39769C7.18829 9.28096 6.02716 9.77574 4.81808 9.77574C3.91629 9.77574 3.03411 9.50026 2.28306 8.98321C1.53191 8.4661 0.945359 7.73032 0.598708 6.86807C0.252034 6.00576 0.161223 5.05649 0.338051 4.1406C0.514872 3.22474 0.951147 2.38446 1.5906 1.72565C2.22997 1.06691 3.04366 0.619188 3.92834 0.437886C4.81297 0.256595 5.73 0.349574 6.56379 0.70541C7.39767 1.06128 8.1116 1.66446 8.61445 2.43983C9.11734 3.21528 9.38619 4.12771 9.38618 5.0617Z" stroke="white" stroke-width="0.5"/>
<path fill-rule="evenodd" clip-rule="evenodd" d="M9.63618 10.0472C9.63618 11.3637 9.12855 12.6263 8.22499 13.5573C7.32142 14.4882 6.09592 15.0112 4.81808 15.0112C3.86515 15.0112 2.93362 14.7201 2.1413 14.1746C1.34897 13.6291 0.731421 12.8539 0.366753 11.9468C0.00208515 11.0397 -0.0933267 10.0416 0.0925828 9.07869C0.278492 8.11575 0.737373 7.23124 1.4112 6.537C2.08502 5.84277 2.94352 5.36999 3.87814 5.17845C4.81276 4.98691 5.78152 5.08522 6.66191 5.46094C7.5423 5.83667 8.29478 6.47293 8.82419 7.28926C9.35361 8.1056 9.63618 9.06536 9.63618 10.0472V10.0472Z" fill="white"/>
<path fill-rule="evenodd" clip-rule="evenodd" d="M28.4447 10.3264C29.1347 10.8979 29.9429 11.1717 30.8244 11.1717C32.2116 11.1717 33.72 10.7615 33.72 9.12961C33.72 6.75151 30.0396 7.25121 30.0396 5.79119C30.0396 5.23635 30.6714 4.92294 31.2409 4.92294C31.7931 4.92294 32.3841 5.15946 32.6313 5.28896L33.2718 4.6243C32.8829 4.25671 31.8957 3.98954 31.239 3.98954H31.228C29.4549 3.98954 28.6474 5.04919 28.6474 6.01746C28.6474 8.32635 32.3076 7.99045 32.2702 9.36986C32.2552 9.91927 31.4581 10.1998 30.8135 10.1998C30.1833 10.1998 29.4942 9.92553 29.0739 9.67314L28.4447 10.3264ZM23.4605 10.173C22.7188 10.173 21.9247 9.84079 21.9247 7.78455C21.9247 6.5656 21.9247 5.2084 21.9247 3.98959L20.538 4.42771V7.81229C20.538 8.2185 20.5415 8.62176 20.618 9.02104C20.9126 10.535 21.8352 11.1717 23.3101 11.1717C23.3596 11.1717 23.4101 11.1706 23.4605 11.1687C23.5109 11.1706 23.4406 11.1717 23.4903 11.1717C24.9949 11.1717 25.9243 10.5092 26.1992 8.92894C26.2597 8.5793 26.2624 8.23294 26.2624 7.87857V6.62318H26.2625V3.98959L25.0623 4.3724V6.62318H25.0622V7.78455C25.0622 9.84079 24.2022 10.173 23.4605 10.173H23.4605ZM16.6936 10.2003C16.5448 10.2516 16.2555 10.306 15.984 10.306C14.7266 10.306 13.4997 9.43109 13.4997 7.50393C13.4997 5.77625 14.5007 4.89026 15.8229 4.89026C16.3926 4.89026 16.9298 5.00124 17.4135 5.24489L18.0803 4.55803C17.8223 4.30327 17.0268 3.91565 15.8551 3.91565C13.7482 3.91565 12.0391 5.31107 12.0391 7.59254C12.0391 10.3503 13.9525 11.1717 15.7584 11.1717C16.2339 11.1717 16.7639 11.0679 17.1387 10.9636L18.0803 10.37V8.55357V7.56903L16.6936 7.98174V10.2003Z" fill="white"/>
</svg>
