<svg width="92" height="40" 
    xmlns="http://www.w3.org/2000/svg">
    <g stroke="null">
        <path stroke="null" fill="#a8d81b" fill-rule="evenodd" d="m26.292558,13.399533c0,7.258225 -5.886187,13.14441 -13.144238,13.14441c-7.258224,0 -13.144444,-5.886186 -13.144444,-13.14441c0,-7.258224 5.886221,-13.14441 13.144444,-13.14441c7.258051,0 13.144238,5.886187 13.144238,13.14441" id="svg_1"/>
        <path stroke="null" fill="#20337f" fill-rule="evenodd" d="m26.292558,26.600608c0,7.258051 -5.886187,13.144272 -13.144238,13.144272c-7.258224,0 -13.144444,-5.886221 -13.144444,-13.144272c0,-7.258225 5.886221,-13.14441 13.144444,-13.14441c7.258051,0 13.144238,5.886186 13.144238,13.14441" id="svg_2"/>
        <path stroke="null" fill="#181210" fill-rule="nonzero" d="m77.604579,27.340009c1.882363,1.513354 4.087092,2.238244 6.492219,2.238244c3.784421,0 7.899327,-1.086125 7.899327,-5.407302c0,-6.297003 -10.040654,-4.973683 -10.040654,-8.839645c0,-1.469301 1.723946,-2.299054 3.277379,-2.299054c1.506616,0 3.118788,0.626245 3.793232,0.969168l1.747267,-1.760051c-1.060902,-0.973315 -3.753843,-1.680756 -5.545681,-1.680756l-0.029196,0c-4.837205,0 -7.040032,2.805924 -7.040032,5.369815c0,6.113707 9.985198,5.22418 9.883444,8.876787c-0.040598,1.454789 -2.215784,2.197473 -3.974454,2.197473c-1.718934,0 -3.599052,-0.726099 -4.745642,-1.394496l-1.717208,1.729818zm-13.59738,-0.406152c-2.023506,0 -4.189882,-0.879681 -4.189882,-6.324471c0,-3.227625 0,-6.821322 0,-10.0486l-3.783212,1.160238l0,8.961783c0,1.07576 0.007083,2.1434 0.218366,3.200675c0.803666,4.008833 3.320568,5.694771 7.344257,5.694771c0.135097,0 0.272957,-0.002419 0.410471,-0.006047c0.137342,0.003628 -0.054419,0.006047 0.081196,0.006047c4.104541,0 6.640099,-1.754178 7.390211,-5.938531c0.164984,-0.925807 0.172585,-1.842975 0.172585,-2.781393l0,-3.324023l0.000346,0l0,-6.97352l-3.274614,1.01374l0,5.95978l-0.000346,0l0,3.07508c0,5.44479 -2.346044,6.324471 -4.369378,6.324471zm-18.461188,0.072384c-0.405635,0.135615 -1.195135,0.279522 -1.935573,0.279522c-3.430786,0 -6.777613,-2.316503 -6.777613,-7.419407c0,-4.574786 2.730774,-6.920656 6.337774,-6.920656c1.554297,0 3.01997,0.29386 4.339662,0.938935l1.818962,-1.818616c-0.703813,-0.67479 -2.874163,-1.700968 -6.070692,-1.700968c-5.747979,0 -10.410527,3.694934 -10.410527,9.73591c0,7.302277 5.220034,9.477291 10.146726,9.477291c1.297234,0 2.743213,-0.274856 3.765591,-0.550923l2.568901,-1.571746l0,-4.809907l0,-2.606907l-3.783212,1.092862l0,5.874611" id="svg_3"/>
    </g>
</svg>