<svg width="44" height="68" viewBox="0 0 44 68" fill="none" xmlns="http://www.w3.org/2000/svg">
<path d="M43.187 22.6343C43.187 28.4454 40.9462 34.0142 36.9644 38.1166C32.9833 42.2183 27.5886 44.5183 21.9685 44.5183C17.7769 44.5183 13.6776 43.2378 10.1887 40.8359C6.69956 38.4339 3.97679 35.0174 2.36811 31.016C0.759354 27.0144 0.338118 22.61 1.15855 18.3605C1.97895 14.1112 4.00345 10.2109 6.97269 7.15169C9.94169 4.09275 13.7217 2.01225 17.8334 1.16963C21.9449 0.327039 26.2068 0.759299 30.0812 2.41278C33.9559 4.06638 37.2713 6.86822 39.6055 10.4675C41.9398 14.067 43.1871 18.3011 43.187 22.6343Z" fill="#BFCE00" stroke="#BFCE00" stroke-width="1.5"/>
<path fill-rule="evenodd" clip-rule="evenodd" d="M43.9371 45.3659C43.937 51.3689 41.6225 57.1259 37.5026 61.3707C33.3827 65.6154 27.7949 68 21.9685 68C17.6235 68 13.3761 66.6725 9.76343 64.1854C6.15073 61.6983 3.33498 58.1634 1.67224 54.0275C0.00950743 49.8917 -0.425531 45.3407 0.42214 40.9501C1.26981 36.5595 3.36212 32.5265 6.43448 29.3611C9.50684 26.1956 13.4213 24.04 17.6827 23.1666C21.9442 22.2933 26.3614 22.7415 30.3756 24.4547C34.3898 26.1678 37.8208 29.0689 40.2347 32.7911C42.6486 36.5132 43.9371 40.8893 43.9371 45.3659V45.3659Z" fill="#00327B"/>
<path fill-rule="evenodd" clip-rule="evenodd" d="M40.9683 33.9996C37.1623 40.7367 30.0783 45.2681 21.968 45.2681C13.8578 45.2681 6.77465 40.7367 2.96893 33.9995C6.77486 27.262 13.8583 22.7317 21.968 22.7317C30.078 22.7317 37.1623 27.2622 40.9683 33.9996Z" fill="#15130E"/>
</svg>
