<svg width="18" height="12" viewBox="0 0 18 12" fill="none" xmlns="http://www.w3.org/2000/svg">
<path d="M17.1875 1.875C17.3125 2.4375 17.4375 3.3125 17.5 4.4375L17.5312 6L17.5 7.5625C17.4375 8.75 17.3125 9.59375 17.1875 10.1562C17.0625 10.5312 16.875 10.8438 16.625 11.0938C16.3438 11.375 16.0312 11.5625 15.6562 11.6562C15.0938 11.8125 13.8438 11.9062 11.8438 11.9688L9 12L6.15625 11.9688C4.15625 11.9062 2.875 11.8125 2.34375 11.6562C1.96875 11.5625 1.625 11.375 1.375 11.0938C1.09375 10.8438 0.90625 10.5312 0.8125 10.1562C0.65625 9.59375 0.5625 8.75 0.5 7.5625L0.46875 6C0.46875 5.5625 0.46875 5.03125 0.5 4.4375C0.5625 3.3125 0.65625 2.4375 0.8125 1.875C0.90625 1.5 1.09375 1.1875 1.375 0.90625C1.625 0.65625 1.96875 0.46875 2.34375 0.34375C2.875 0.21875 4.15625 0.09375 6.15625 0.03125L9 0L11.8438 0.03125C13.8438 0.09375 15.0938 0.21875 15.6562 0.34375C16.0312 0.46875 16.3438 0.65625 16.625 0.90625C16.875 1.1875 17.0625 1.5 17.1875 1.875ZM7.25 8.5625L11.7188 6L7.25 3.46875V8.5625Z" fill="white"/>
</svg>
